<?xml version="1.0" encoding="UTF-8" standalone="no"?>
<!DOCTYPE svg PUBLIC "-//W3C//DTD SVG 1.1//EN"
 "http://www.w3.org/Graphics/SVG/1.1/DTD/svg11.dtd">
<!-- Generated by graphviz version 2.38.0 (20140413.2041)
 -->
<!-- Title: models_diagram Pages: 1 -->
<svg width="703pt" height="772pt"
 viewBox="0.00 0.00 702.65 772.00" xmlns="http://www.w3.org/2000/svg" xmlns:xlink="http://www.w3.org/1999/xlink">
<g id="graph0" class="graph" transform="scale(1 1) rotate(0) translate(4 768)">
<title>models_diagram</title>
<polygon fill="none" stroke="none" points="-4,4 -4,-768 698.65,-768 698.65,4 -4,4"/>
<!-- AttachedImage -->
<g id="node1" class="node"><title>AttachedImage</title>
<path fill="none" stroke="black" d="M278,-137.5C278,-137.5 501.725,-137.5 501.725,-137.5 507.725,-137.5 513.725,-143.5 513.725,-149.5 513.725,-149.5 513.725,-239.5 513.725,-239.5 513.725,-245.5 507.725,-251.5 501.725,-251.5 501.725,-251.5 278,-251.5 278,-251.5 272,-251.5 266,-245.5 266,-239.5 266,-239.5 266,-149.5 266,-149.5 266,-143.5 272,-137.5 278,-137.5"/>
<text text-anchor="middle" x="389.862" y="-236.3" font-family="Times,serif" font-size="14.00">AttachedImage</text>
<polyline fill="none" stroke="black" points="266,-229.5 513.725,-229.5 "/>
<text text-anchor="start" x="274" y="-214.3" font-family="Times,serif" font-size="14.00">id :integer</text>
<text text-anchor="start" x="274" y="-200.3" font-family="Times,serif" font-size="14.00">attachable_id :integer</text>
<text text-anchor="start" x="274" y="-186.3" font-family="Times,serif" font-size="14.00">attachable_type :character varying</text>
<text text-anchor="start" x="274" y="-172.3" font-family="Times,serif" font-size="14.00">file_id :character varying</text>
<text text-anchor="start" x="274" y="-158.3" font-family="Times,serif" font-size="14.00">created_at :timestamp without time zone</text>
<text text-anchor="start" x="274" y="-144.3" font-family="Times,serif" font-size="14.00">updated_at :timestamp without time zone</text>
</g>
<!-- Comment -->
<g id="node2" class="node"><title>Comment</title>
<path fill="none" stroke="black" d="M12,-137.5C12,-137.5 235.725,-137.5 235.725,-137.5 241.725,-137.5 247.725,-143.5 247.725,-149.5 247.725,-149.5 247.725,-239.5 247.725,-239.5 247.725,-245.5 241.725,-251.5 235.725,-251.5 235.725,-251.5 12,-251.5 12,-251.5 6,-251.5 0,-245.5 0,-239.5 0,-239.5 0,-149.5 0,-149.5 0,-143.5 6,-137.5 12,-137.5"/>
<text text-anchor="middle" x="123.862" y="-236.3" font-family="Times,serif" font-size="14.00">Comment</text>
<polyline fill="none" stroke="black" points="0,-229.5 247.725,-229.5 "/>
<text text-anchor="start" x="8" y="-214.3" font-family="Times,serif" font-size="14.00">id :integer</text>
<text text-anchor="start" x="8" y="-200.3" font-family="Times,serif" font-size="14.00">text :text</text>
<text text-anchor="start" x="8" y="-186.3" font-family="Times,serif" font-size="14.00">user_id :integer</text>
<text text-anchor="start" x="8" y="-172.3" font-family="Times,serif" font-size="14.00">post_id :integer</text>
<text text-anchor="start" x="8" y="-158.3" font-family="Times,serif" font-size="14.00">created_at :timestamp without time zone</text>
<text text-anchor="start" x="8" y="-144.3" font-family="Times,serif" font-size="14.00">updated_at :timestamp without time zone</text>
</g>
<!-- Reaction -->
<g id="node4" class="node"><title>Reaction</title>
<path fill="none" stroke="black" d="M455.693,-0.5C455.693,-0.5 628.032,-0.5 628.032,-0.5 634.032,-0.5 640.032,-6.5 640.032,-12.5 640.032,-12.5 640.032,-88.5 640.032,-88.5 640.032,-94.5 634.032,-100.5 628.032,-100.5 628.032,-100.5 455.693,-100.5 455.693,-100.5 449.693,-100.5 443.693,-94.5 443.693,-88.5 443.693,-88.5 443.693,-12.5 443.693,-12.5 443.693,-6.5 449.693,-0.5 455.693,-0.5"/>
<text text-anchor="middle" x="541.862" y="-85.3" font-family="Times,serif" font-size="14.00">Reaction</text>
<polyline fill="none" stroke="black" points="443.693,-78.5 640.032,-78.5 "/>
<text text-anchor="start" x="451.693" y="-63.3" font-family="Times,serif" font-size="14.00">id :integer</text>
<text text-anchor="start" x="451.693" y="-49.3" font-family="Times,serif" font-size="14.00">positive :boolean</text>
<text text-anchor="start" x="451.693" y="-35.3" font-family="Times,serif" font-size="14.00">reactive_id :integer</text>
<text text-anchor="start" x="451.693" y="-21.3" font-family="Times,serif" font-size="14.00">reactive_type :character varying</text>
<text text-anchor="start" x="451.693" y="-7.3" font-family="Times,serif" font-size="14.00">user_id :integer</text>
</g>
<!-- Comment&#45;&gt;Reaction -->
<g id="edge1" class="edge"><title>Comment&#45;&gt;Reaction</title>
<path fill="none" stroke="#0e91d5" d="M255.478,-137.502C255.94,-137.334 256.401,-137.166 256.862,-137 314.494,-116.186 379.906,-96.3038 433.515,-80.9589"/>
<ellipse fill="none" stroke="#0e91d5" cx="251.69" cy="-138.898" rx="4.00001" ry="4.00001"/>
<polygon fill="#0e91d5" stroke="#0e91d5" points="433.765,-80.8875 444.616,-82.475 438.574,-79.5174 443.383,-78.1473 443.383,-78.1473 443.383,-78.1473 438.574,-79.5174 442.15,-73.8195 433.765,-80.8875 433.765,-80.8875"/>
</g>
<!-- Post -->
<g id="node3" class="node"><title>Post</title>
<path fill="none" stroke="black" d="M278,-288.5C278,-288.5 501.725,-288.5 501.725,-288.5 507.725,-288.5 513.725,-294.5 513.725,-300.5 513.725,-300.5 513.725,-376.5 513.725,-376.5 513.725,-382.5 507.725,-388.5 501.725,-388.5 501.725,-388.5 278,-388.5 278,-388.5 272,-388.5 266,-382.5 266,-376.5 266,-376.5 266,-300.5 266,-300.5 266,-294.5 272,-288.5 278,-288.5"/>
<text text-anchor="middle" x="389.862" y="-373.3" font-family="Times,serif" font-size="14.00">Post</text>
<polyline fill="none" stroke="black" points="266,-366.5 513.725,-366.5 "/>
<text text-anchor="start" x="274" y="-351.3" font-family="Times,serif" font-size="14.00">id :integer</text>
<text text-anchor="start" x="274" y="-337.3" font-family="Times,serif" font-size="14.00">text :text</text>
<text text-anchor="start" x="274" y="-323.3" font-family="Times,serif" font-size="14.00">user_id :integer</text>
<text text-anchor="start" x="274" y="-309.3" font-family="Times,serif" font-size="14.00">created_at :timestamp without time zone</text>
<text text-anchor="start" x="274" y="-295.3" font-family="Times,serif" font-size="14.00">updated_at :timestamp without time zone</text>
</g>
<!-- Post&#45;&gt;AttachedImage -->
<g id="edge4" class="edge"><title>Post&#45;&gt;AttachedImage</title>
<path fill="none" stroke="#d203be" d="M389.862,-280.168C389.862,-274.214 389.862,-268.127 389.862,-262.084"/>
<ellipse fill="none" stroke="#d203be" cx="389.862" cy="-284.234" rx="4" ry="4"/>
<polygon fill="#d203be" stroke="#d203be" points="389.862,-261.984 394.362,-251.984 389.862,-256.984 389.862,-251.984 389.862,-251.984 389.862,-251.984 389.862,-256.984 385.362,-251.984 389.862,-261.984 389.862,-261.984"/>
</g>
<!-- Post&#45;&gt;Comment -->
<g id="edge2" class="edge"><title>Post&#45;&gt;Comment</title>
<path fill="none" stroke="#17562f" d="M290.862,-284.65C273.684,-275.48 255.694,-265.876 238.148,-256.51"/>
<ellipse fill="none" stroke="#17562f" cx="294.419" cy="-286.549" rx="4.00002" ry="4.00002"/>
<polygon fill="#17562f" stroke="#17562f" points="237.841,-256.346 231.139,-247.667 233.43,-253.991 229.019,-251.636 229.019,-251.636 229.019,-251.636 233.43,-253.991 226.9,-255.606 237.841,-256.346 237.841,-256.346"/>
</g>
<!-- Post&#45;&gt;Reaction -->
<g id="edge3" class="edge"><title>Post&#45;&gt;Reaction</title>
<path fill="none" stroke="#8a199a" d="M495.922,-283.139C506.399,-274.019 515.761,-263.661 522.862,-252 548.566,-209.789 551.679,-153.068 549.31,-110.727"/>
<ellipse fill="none" stroke="#8a199a" cx="492.71" cy="-285.809" rx="4.00002" ry="4.00002"/>
<polygon fill="#8a199a" stroke="#8a199a" points="549.298,-110.541 553.112,-100.26 548.96,-105.552 548.622,-100.564 548.622,-100.564 548.622,-100.564 548.96,-105.552 544.133,-100.868 549.298,-110.541 549.298,-110.541"/>
</g>
<!-- Relationship -->
<g id="node5" class="node"><title>Relationship</title>
<path fill="none" stroke="black" d="M579.074,-558.5C579.074,-558.5 682.65,-558.5 682.65,-558.5 688.65,-558.5 694.65,-564.5 694.65,-570.5 694.65,-570.5 694.65,-618.5 694.65,-618.5 694.65,-624.5 688.65,-630.5 682.65,-630.5 682.65,-630.5 579.074,-630.5 579.074,-630.5 573.074,-630.5 567.074,-624.5 567.074,-618.5 567.074,-618.5 567.074,-570.5 567.074,-570.5 567.074,-564.5 573.074,-558.5 579.074,-558.5"/>
<text text-anchor="middle" x="630.862" y="-615.3" font-family="Times,serif" font-size="14.00">Relationship</text>
<polyline fill="none" stroke="black" points="567.074,-608.5 694.65,-608.5 "/>
<text text-anchor="start" x="575.074" y="-593.3" font-family="Times,serif" font-size="14.00">id :integer</text>
<text text-anchor="start" x="575.074" y="-579.3" font-family="Times,serif" font-size="14.00">user_id :integer</text>
<text text-anchor="start" x="575.074" y="-565.3" font-family="Times,serif" font-size="14.00">follower_id :integer</text>
</g>
<!-- User -->
<g id="node6" class="node"><title>User</title>
<path fill="none" stroke="black" d="M242.228,-425.5C242.228,-425.5 537.497,-425.5 537.497,-425.5 543.497,-425.5 549.497,-431.5 549.497,-437.5 549.497,-437.5 549.497,-751.5 549.497,-751.5 549.497,-757.5 543.497,-763.5 537.497,-763.5 537.497,-763.5 242.228,-763.5 242.228,-763.5 236.228,-763.5 230.228,-757.5 230.228,-751.5 230.228,-751.5 230.228,-437.5 230.228,-437.5 230.228,-431.5 236.228,-425.5 242.228,-425.5"/>
<text text-anchor="middle" x="389.862" y="-748.3" font-family="Times,serif" font-size="14.00">User</text>
<polyline fill="none" stroke="black" points="230.228,-741.5 549.497,-741.5 "/>
<text text-anchor="start" x="238.228" y="-726.3" font-family="Times,serif" font-size="14.00">id :integer</text>
<text text-anchor="start" x="238.228" y="-712.3" font-family="Times,serif" font-size="14.00">email :character varying(255)</text>
<text text-anchor="start" x="238.228" y="-698.3" font-family="Times,serif" font-size="14.00">encrypted_password :character varying(255)</text>
<text text-anchor="start" x="238.228" y="-684.3" font-family="Times,serif" font-size="14.00">reset_password_token :character varying(255)</text>
<text text-anchor="start" x="238.228" y="-670.3" font-family="Times,serif" font-size="14.00">reset_password_sent_at :timestamp without time zone</text>
<text text-anchor="start" x="238.228" y="-656.3" font-family="Times,serif" font-size="14.00">remember_created_at :timestamp without time zone</text>
<text text-anchor="start" x="238.228" y="-642.3" font-family="Times,serif" font-size="14.00">confirmation_token :character varying(255)</text>
<text text-anchor="start" x="238.228" y="-628.3" font-family="Times,serif" font-size="14.00">confirmed_at :timestamp without time zone</text>
<text text-anchor="start" x="238.228" y="-614.3" font-family="Times,serif" font-size="14.00">confirmation_sent_at :timestamp without time zone</text>
<text text-anchor="start" x="238.228" y="-600.3" font-family="Times,serif" font-size="14.00">unconfirmed_email :character varying(255)</text>
<text text-anchor="start" x="238.228" y="-586.3" font-family="Times,serif" font-size="14.00">sign_in_count :integer</text>
<text text-anchor="start" x="238.228" y="-572.3" font-family="Times,serif" font-size="14.00">current_sign_in_at :timestamp without time zone</text>
<text text-anchor="start" x="238.228" y="-558.3" font-family="Times,serif" font-size="14.00">last_sign_in_at :timestamp without time zone</text>
<text text-anchor="start" x="238.228" y="-544.3" font-family="Times,serif" font-size="14.00">current_sign_in_ip :character varying(255)</text>
<text text-anchor="start" x="238.228" y="-530.3" font-family="Times,serif" font-size="14.00">last_sign_in_ip :character varying(255)</text>
<text text-anchor="start" x="238.228" y="-516.3" font-family="Times,serif" font-size="14.00">created_at :timestamp without time zone</text>
<text text-anchor="start" x="238.228" y="-502.3" font-family="Times,serif" font-size="14.00">updated_at :timestamp without time zone</text>
<text text-anchor="start" x="238.228" y="-488.3" font-family="Times,serif" font-size="14.00">full_name :character varying(255)</text>
<text text-anchor="start" x="238.228" y="-474.3" font-family="Times,serif" font-size="14.00">avatar_id :character varying</text>
<text text-anchor="start" x="238.228" y="-460.3" font-family="Times,serif" font-size="14.00">wallpaper_id :character varying</text>
<text text-anchor="start" x="238.228" y="-446.3" font-family="Times,serif" font-size="14.00">term_for_positive_reaction :character varying</text>
<text text-anchor="start" x="238.228" y="-432.3" font-family="Times,serif" font-size="14.00">term_for_negative_reaction :character varying</text>
</g>
<!-- User&#45;&gt;Comment -->
<g id="edge6" class="edge"><title>User&#45;&gt;Comment</title>
<path fill="none" stroke="#3aec1d" d="M272.804,-418.353C235.138,-361.995 195.741,-303.048 166.933,-259.945"/>
<ellipse fill="none" stroke="#3aec1d" cx="275.217" cy="-421.963" rx="4.00002" ry="4.00002"/>
<polygon fill="#3aec1d" stroke="#3aec1d" points="166.873,-259.855 165.058,-249.04 164.095,-255.698 161.317,-251.541 161.317,-251.541 161.317,-251.541 164.095,-255.698 157.575,-254.041 166.873,-259.855 166.873,-259.855"/>
</g>
<!-- User&#45;&gt;Post -->
<g id="edge5" class="edge"><title>User&#45;&gt;Post</title>
<path fill="none" stroke="#9dc744" d="M389.862,-417.296C389.862,-410.985 389.862,-404.866 389.862,-399.016"/>
<ellipse fill="none" stroke="#9dc744" cx="389.862" cy="-421.493" rx="4" ry="4"/>
<polygon fill="#9dc744" stroke="#9dc744" points="389.862,-398.794 394.362,-388.794 389.862,-393.794 389.862,-388.794 389.862,-388.794 389.862,-388.794 389.862,-393.794 385.362,-388.794 389.862,-398.794 389.862,-398.794"/>
</g>
<!-- User&#45;&gt;Reaction -->
<g id="edge7" class="edge"><title>User&#45;&gt;Reaction</title>
<path fill="none" stroke="#42ba74" d="M509.749,-418.085C514.513,-408.421 518.927,-398.694 522.862,-389 560.025,-297.452 556.525,-180.348 549.773,-110.896"/>
<ellipse fill="none" stroke="#42ba74" cx="507.837" cy="-421.888" rx="4.00002" ry="4.00002"/>
<polygon fill="#42ba74" stroke="#42ba74" points="549.736,-110.535 553.189,-100.126 549.224,-105.561 548.713,-100.587 548.713,-100.587 548.713,-100.587 549.224,-105.561 544.236,-101.047 549.736,-110.535 549.736,-110.535"/>
</g>
</g>
</svg>
